<svg xmlns="http://www.w3.org/2000/svg" width="512" height="512" viewBox="0 0 512 512">
<defs>
  <!-- Background gradient: warm blush -->
  <radialGradient id="bg" cx="35%" cy="25%" r="85%">
    <stop offset="0%"   stop-color="#fff5fa"/>
    <stop offset="55%"  stop-color="#fce4ec"/>
    <stop offset="100%" stop-color="#f8bbd0"/>
  </radialGradient>

  <!-- Inner background vignette: slightly deeper at edges -->
  <radialGradient id="vignette" cx="50%" cy="50%" r="50%">
    <stop offset="60%"  stop-color="#fce4ec" stop-opacity="0"/>
    <stop offset="100%" stop-color="#e91e63" stop-opacity="0.12"/>
  </radialGradient>

  <!-- Cross gradient: rich rose-to-deep -->
  <linearGradient id="crossG" x1="0%" y1="0%" x2="100%" y2="100%">
    <stop offset="0%"   stop-color="#f48fb1"/>
    <stop offset="30%"  stop-color="#e91e63"/>
    <stop offset="70%"  stop-color="#c2185b"/>
    <stop offset="100%" stop-color="#ad1457"/>
  </linearGradient>

  <!-- Cross highlight -->
  <linearGradient id="crossHL" x1="0%" y1="0%" x2="0%" y2="100%">
    <stop offset="0%"   stop-color="#ffffff" stop-opacity="0.55"/>
    <stop offset="100%" stop-color="#ffffff" stop-opacity="0"/>
  </linearGradient>

  <!-- Petal glow -->
  <radialGradient id="petalGlow" cx="50%" cy="50%" r="50%">
    <stop offset="0%"   stop-color="#ffffff" stop-opacity="0.90"/>
    <stop offset="45%"  stop-color="#ffe4ef" stop-opacity="0.55"/>
    <stop offset="100%" stop-color="#c2185b" stop-opacity="0"/>
  </radialGradient>

  <!-- Clip to rounded square -->
  <clipPath id="iconClip">
    <rect width="512" height="512" rx="115" ry="115"/>
  </clipPath>

  <filter id="glow10">
    <feGaussianBlur stdDeviation="10" result="b"/>
    <feMerge><feMergeNode in="b"/><feMergeNode in="SourceGraphic"/></feMerge>
  </filter>
  <filter id="glow5">
    <feGaussianBlur stdDeviation="5" result="b"/>
    <feMerge><feMergeNode in="b"/><feMergeNode in="SourceGraphic"/></feMerge>
  </filter>
  <filter id="glow3">
    <feGaussianBlur stdDeviation="3" result="b"/>
    <feMerge><feMergeNode in="b"/><feMergeNode in="SourceGraphic"/></feMerge>
  </filter>
  <filter id="shadow">
    <feDropShadow dx="0" dy="6" stdDeviation="14" flood-color="#c2185b" flood-opacity="0.30"/>
  </filter>
</defs>

<g clip-path="url(#iconClip)">

  <!-- ── BACKGROUND ── -->
  <rect width="512" height="512" fill="url(#bg)"/>
  <rect width="512" height="512" fill="url(#vignette)"/>

  <!-- ── AMBIENT PETAL GLOW ── -->
  <circle cx="256" cy="256" r="185" fill="url(#petalGlow)" opacity="0.60" filter="url(#glow10)"/>

  <!-- ── MAGNOLIA PETALS (back layer — pale, 7 petals upper crown) ── -->
  <ellipse cx="256.0" cy="148.0" rx="48" ry="108"
      transform="rotate(0 256.0 148.0)"
      fill="#f8bbd0" opacity="0.5"/>
  <ellipse cx="310.1" cy="169.5" rx="44" ry="100"
      transform="rotate(32 310.1 169.5)"
      fill="#f8bbd0" opacity="0.44"/>
  <ellipse cx="201.9" cy="169.5" rx="44" ry="100"
      transform="rotate(-32 201.9 169.5)"
      fill="#f8bbd0" opacity="0.44"/>
  <ellipse cx="340.8" cy="210.9" rx="40" ry="90"
      transform="rotate(62 340.8 210.9)"
      fill="#f8bbd0" opacity="0.36"/>
  <ellipse cx="171.2" cy="210.9" rx="40" ry="90"
      transform="rotate(-62 171.2 210.9)"
      fill="#f8bbd0" opacity="0.36"/>
  <ellipse cx="343.9" cy="259.1" rx="36" ry="78"
      transform="rotate(92 343.9 259.1)"
      fill="#f8bbd0" opacity="0.28"/>
  <ellipse cx="168.1" cy="259.1" rx="36" ry="78"
      transform="rotate(-92 168.1 259.1)"
      fill="#f8bbd0" opacity="0.28"/>

  <!-- ── PETALS mid layer — warmer pink ── -->
  <ellipse cx="256.0" cy="168.0" rx="36" ry="86"
      transform="rotate(0 256.0 168.0)"
      fill="#f48fb1" opacity="0.6"/>
  <ellipse cx="300.5" cy="184.8" rx="32" ry="80"
      transform="rotate(32 300.5 184.8)"
      fill="#f48fb1" opacity="0.54"/>
  <ellipse cx="211.5" cy="184.8" rx="32" ry="80"
      transform="rotate(-32 211.5 184.8)"
      fill="#f48fb1" opacity="0.54"/>
  <ellipse cx="323.5" cy="217.0" rx="28" ry="70"
      transform="rotate(60 323.5 217.0)"
      fill="#f48fb1" opacity="0.44"/>
  <ellipse cx="188.5" cy="217.0" rx="28" ry="70"
      transform="rotate(-60 188.5 217.0)"
      fill="#f48fb1" opacity="0.44"/>

  <!-- ── PETALS inner layer — deep rose ── -->
  <ellipse cx="256.0" cy="188.0" rx="24" ry="60"
      transform="rotate(0 256.0 188.0)"
      fill="#e91e63" opacity="0.65"/>
  <ellipse cx="288.0" cy="200.6" rx="22" ry="56"
      transform="rotate(30 288.0 200.6)"
      fill="#e91e63" opacity="0.56"/>
  <ellipse cx="224.0" cy="200.6" rx="22" ry="56"
      transform="rotate(-30 224.0 200.6)"
      fill="#e91e63" opacity="0.56"/>

  <!-- ── LOWER SIDE LEAVES ── -->
  <ellipse cx="299.3" cy="281.0" rx="18" ry="40"
      transform="rotate(120 299.3 281.0)"
      fill="#f48fb1" opacity="0.38"/>
  <ellipse cx="212.7" cy="281.0" rx="18" ry="40"
      transform="rotate(240 212.7 281.0)"
      fill="#f48fb1" opacity="0.38"/>
  <ellipse cx="256.0" cy="296.0" rx="14" ry="32"
      transform="rotate(180 256.0 296.0)"
      fill="#f48fb1" opacity="0.28"/>

  <!-- ── GLITTER on petals ── -->
  <g opacity="1"><circle cx="181.1" cy="170.1" r="1.9" fill="#f48fb1" opacity="0.42"/><circle cx="266.7" cy="144.8" r="2.0" fill="#ffe082" opacity="0.58"/><circle cx="284.1" cy="215.3" r="1.2" fill="#f48fb1" opacity="0.86"/><circle cx="332.3" cy="367.4" r="0.5" fill="#ffffff" opacity="0.47"/><circle cx="138.2" cy="302.6" r="1.7" fill="#f48fb1" opacity="0.88"/><circle cx="270.7" cy="108.1" r="1.6" fill="#f48fb1" opacity="0.58"/><circle cx="146.2" cy="357.0" r="1.9" fill="#f48fb1" opacity="0.70"/><circle cx="283.2" cy="116.7" r="0.9" fill="#f48fb1" opacity="0.77"/><circle cx="399.0" cy="203.1" r="0.6" fill="#f48fb1" opacity="0.46"/><circle cx="331.8" cy="390.5" r="2.6" fill="#f48fb1" opacity="0.82"/><circle cx="132.5" cy="219.4" r="0.9" fill="#f48fb1" opacity="0.58"/><circle cx="346.2" cy="337.1" r="1.4" fill="#f48fb1" opacity="0.62"/><circle cx="378.8" cy="249.5" r="1.5" fill="#ffe082" opacity="0.70"/><circle cx="273.6" cy="272.2" r="0.5" fill="#ffffff" opacity="0.36"/><circle cx="333.9" cy="189.4" r="1.5" fill="#f48fb1" opacity="0.47"/><circle cx="248.2" cy="390.6" r="2.2" fill="#f48fb1" opacity="0.56"/><circle cx="245.1" cy="276.0" r="1.6" fill="#ffffff" opacity="0.81"/><circle cx="361.1" cy="355.6" r="1.6" fill="#ffffff" opacity="0.85"/><circle cx="219.5" cy="296.4" r="1.9" fill="#ffffff" opacity="0.43"/><circle cx="272.8" cy="266.3" r="1.8" fill="#ffe082" opacity="0.81"/><circle cx="265.5" cy="355.2" r="1.1" fill="#ffffff" opacity="0.81"/><circle cx="179.3" cy="224.1" r="2.5" fill="#ffffff" opacity="0.85"/><circle cx="241.1" cy="112.9" r="2.1" fill="#ffe082" opacity="0.86"/><circle cx="223.1" cy="230.4" r="1.8" fill="#f48fb1" opacity="0.61"/><circle cx="305.7" cy="219.5" r="1.7" fill="#ffffff" opacity="0.32"/><circle cx="168.1" cy="311.7" r="1.9" fill="#ffffff" opacity="0.52"/><circle cx="281.5" cy="233.5" r="2.3" fill="#ffffff" opacity="0.35"/><circle cx="179.7" cy="316.8" r="1.2" fill="#f48fb1" opacity="0.83"/><circle cx="356.1" cy="178.0" r="1.6" fill="#ffffff" opacity="0.81"/><circle cx="262.1" cy="303.5" r="0.5" fill="#f48fb1" opacity="0.67"/><circle cx="320.8" cy="366.0" r="1.6" fill="#f48fb1" opacity="0.61"/><circle cx="223.7" cy="307.2" r="0.9" fill="#f48fb1" opacity="0.88"/><circle cx="305.1" cy="186.1" r="2.2" fill="#ffe082" opacity="0.42"/><circle cx="154.4" cy="205.0" r="1.6" fill="#f48fb1" opacity="0.84"/><circle cx="235.0" cy="295.7" r="1.1" fill="#ffe082" opacity="0.48"/><circle cx="187.4" cy="373.3" r="2.0" fill="#ffe082" opacity="0.87"/><circle cx="247.4" cy="268.6" r="0.8" fill="#f48fb1" opacity="0.49"/><circle cx="261.2" cy="183.3" r="1.0" fill="#ffffff" opacity="0.60"/><circle cx="152.5" cy="329.7" r="1.2" fill="#ffffff" opacity="0.65"/><circle cx="233.9" cy="283.7" r="1.7" fill="#f48fb1" opacity="0.72"/><circle cx="325.8" cy="154.0" r="1.6" fill="#f48fb1" opacity="0.78"/><circle cx="239.3" cy="105.0" r="1.3" fill="#ffffff" opacity="0.89"/><circle cx="287.0" cy="324.7" r="1.2" fill="#f48fb1" opacity="0.43"/><circle cx="355.0" cy="179.8" r="1.5" fill="#f48fb1" opacity="0.67"/><circle cx="330.0" cy="265.2" r="2.2" fill="#ffffff" opacity="0.72"/><circle cx="375.4" cy="201.9" r="1.5" fill="#ffffff" opacity="0.45"/><circle cx="208.4" cy="381.5" r="1.9" fill="#ffffff" opacity="0.86"/><circle cx="130.9" cy="327.3" r="2.0" fill="#f48fb1" opacity="0.71"/><circle cx="338.4" cy="347.3" r="1.0" fill="#ffe082" opacity="0.47"/><circle cx="260.8" cy="329.8" r="1.8" fill="#f48fb1" opacity="0.52"/><circle cx="183.3" cy="311.5" r="0.7" fill="#f48fb1" opacity="0.60"/><circle cx="222.5" cy="395.7" r="2.1" fill="#ffe082" opacity="0.60"/><circle cx="343.4" cy="272.5" r="1.1" fill="#f48fb1" opacity="0.75"/><circle cx="320.3" cy="280.1" r="0.9" fill="#ffffff" opacity="0.76"/><circle cx="314.5" cy="268.9" r="1.4" fill="#ffffff" opacity="0.37"/><circle cx="310.4" cy="124.2" r="2.2" fill="#f48fb1" opacity="0.40"/><circle cx="347.0" cy="183.0" r="2.2" fill="#ffffff" opacity="0.88"/><circle cx="264.9" cy="118.9" r="0.5" fill="#f48fb1" opacity="0.73"/><circle cx="309.8" cy="339.8" r="0.9" fill="#f48fb1" opacity="0.38"/><circle cx="280.2" cy="300.8" r="0.6" fill="#ffe082" opacity="0.71"/><circle cx="215.0" cy="379.7" r="1.2" fill="#f48fb1" opacity="0.63"/><circle cx="326.2" cy="371.2" r="2.4" fill="#f48fb1" opacity="0.35"/><circle cx="355.1" cy="259.3" r="0.4" fill="#ffe082" opacity="0.39"/><circle cx="208.0" cy="135.2" r="2.4" fill="#ffffff" opacity="0.85"/><circle cx="370.7" cy="305.2" r="1.5" fill="#f48fb1" opacity="0.65"/><circle cx="223.4" cy="228.6" r="1.2" fill="#f48fb1" opacity="0.64"/><circle cx="259.7" cy="269.4" r="1.6" fill="#ffffff" opacity="0.59"/><circle cx="260.1" cy="346.7" r="2.0" fill="#f48fb1" opacity="0.82"/><circle cx="297.4" cy="211.9" r="1.8" fill="#ffe082" opacity="0.89"/><circle cx="355.9" cy="158.8" r="2.3" fill="#ffffff" opacity="0.89"/><circle cx="240.4" cy="274.2" r="1.0" fill="#f48fb1" opacity="0.69"/><circle cx="224.7" cy="193.1" r="1.2" fill="#ffe082" opacity="0.55"/><circle cx="253.9" cy="356.2" r="2.4" fill="#ffffff" opacity="0.60"/><circle cx="178.9" cy="310.7" r="1.3" fill="#f48fb1" opacity="0.82"/><circle cx="155.7" cy="246.0" r="0.9" fill="#f48fb1" opacity="0.46"/><circle cx="393.1" cy="208.9" r="1.9" fill="#f48fb1" opacity="0.77"/><circle cx="274.8" cy="342.0" r="0.7" fill="#ffe082" opacity="0.33"/><circle cx="354.4" cy="196.1" r="0.9" fill="#ffffff" opacity="0.87"/><circle cx="220.7" cy="125.5" r="2.5" fill="#f48fb1" opacity="0.90"/><circle cx="402.0" cy="307.4" r="2.3" fill="#ffffff" opacity="0.47"/><circle cx="263.5" cy="176.0" r="2.3" fill="#f48fb1" opacity="0.54"/><circle cx="260.3" cy="104.5" r="0.4" fill="#ffffff" opacity="0.90"/><circle cx="119.0" cy="310.9" r="0.8" fill="#f48fb1" opacity="0.64"/><circle cx="246.7" cy="345.0" r="0.7" fill="#f48fb1" opacity="0.49"/><circle cx="335.1" cy="286.7" r="1.2" fill="#ffffff" opacity="0.85"/><circle cx="329.9" cy="182.4" r="1.1" fill="#f48fb1" opacity="0.66"/><circle cx="375.0" cy="197.1" r="1.7" fill="#ffe082" opacity="0.56"/><circle cx="262.3" cy="357.9" r="1.9" fill="#f48fb1" opacity="0.80"/><circle cx="288.4" cy="111.2" r="1.6" fill="#f48fb1" opacity="0.36"/><circle cx="289.5" cy="202.2" r="1.7" fill="#f48fb1" opacity="0.87"/><circle cx="254.8" cy="216.5" r="2.2" fill="#f48fb1" opacity="0.34"/><circle cx="159.1" cy="375.2" r="2.4" fill="#f48fb1" opacity="0.48"/><circle cx="344.8" cy="180.8" r="2.5" fill="#f48fb1" opacity="0.84"/><circle cx="318.2" cy="190.2" r="1.3" fill="#f48fb1" opacity="0.88"/><circle cx="370.5" cy="178.1" r="1.8" fill="#f48fb1" opacity="0.38"/><circle cx="224.1" cy="368.7" r="0.8" fill="#ffffff" opacity="0.68"/><circle cx="378.8" cy="258.3" r="0.7" fill="#f48fb1" opacity="0.56"/><circle cx="222.4" cy="378.3" r="1.0" fill="#f48fb1" opacity="0.63"/><circle cx="253.2" cy="386.2" r="1.3" fill="#f48fb1" opacity="0.74"/><circle cx="183.5" cy="282.1" r="1.6" fill="#f48fb1" opacity="0.38"/><circle cx="312.4" cy="397.2" r="1.0" fill="#f48fb1" opacity="0.39"/><circle cx="146.1" cy="243.9" r="1.4" fill="#f48fb1" opacity="0.54"/><circle cx="186.9" cy="337.5" r="0.4" fill="#f48fb1" opacity="0.52"/><circle cx="167.1" cy="189.6" r="0.9" fill="#f48fb1" opacity="0.76"/><circle cx="356.4" cy="200.6" r="2.2" fill="#f48fb1" opacity="0.35"/><circle cx="243.2" cy="381.0" r="0.5" fill="#f48fb1" opacity="0.70"/><circle cx="183.9" cy="143.6" r="2.4" fill="#ffffff" opacity="0.57"/><circle cx="180.3" cy="343.3" r="1.5" fill="#f48fb1" opacity="0.49"/><circle cx="246.1" cy="108.5" r="1.0" fill="#ffffff" opacity="0.74"/><circle cx="204.2" cy="279.0" r="2.1" fill="#ffffff" opacity="0.43"/><circle cx="215.4" cy="184.9" r="0.7" fill="#ffffff" opacity="0.70"/><circle cx="263.6" cy="303.1" r="1.2" fill="#ffffff" opacity="0.90"/><circle cx="307.6" cy="359.2" r="1.4" fill="#ffe082" opacity="0.68"/><circle cx="190.3" cy="130.7" r="1.0" fill="#ffffff" opacity="0.71"/><circle cx="347.7" cy="276.2" r="0.6" fill="#ffffff" opacity="0.50"/><circle cx="184.4" cy="216.4" r="1.9" fill="#f48fb1" opacity="0.30"/><circle cx="228.4" cy="253.3" r="1.0" fill="#f48fb1" opacity="0.87"/><circle cx="214.7" cy="303.9" r="1.0" fill="#ffffff" opacity="0.82"/><circle cx="387.6" cy="274.7" r="2.4" fill="#f48fb1" opacity="0.74"/><circle cx="219.6" cy="141.1" r="2.5" fill="#f48fb1" opacity="0.60"/><circle cx="316.8" cy="213.1" r="1.4" fill="#f48fb1" opacity="0.75"/><circle cx="162.8" cy="347.4" r="1.8" fill="#ffe082" opacity="0.37"/><circle cx="199.3" cy="342.4" r="1.4" fill="#f48fb1" opacity="0.36"/><circle cx="333.6" cy="296.8" r="0.6" fill="#ffffff" opacity="0.63"/><circle cx="135.4" cy="334.9" r="1.3" fill="#f48fb1" opacity="0.47"/><circle cx="383.3" cy="197.7" r="2.5" fill="#f48fb1" opacity="0.64"/><circle cx="245.3" cy="391.5" r="2.3" fill="#f48fb1" opacity="0.60"/><circle cx="129.8" cy="172.3" r="0.5" fill="#ffffff" opacity="0.39"/><circle cx="289.5" cy="321.5" r="1.0" fill="#f48fb1" opacity="0.83"/><circle cx="208.6" cy="239.5" r="1.7" fill="#f48fb1" opacity="0.82"/><circle cx="225.7" cy="180.2" r="1.1" fill="#ffe082" opacity="0.51"/><circle cx="220.8" cy="322.5" r="2.3" fill="#f48fb1" opacity="0.42"/><circle cx="384.6" cy="204.8" r="2.3" fill="#f48fb1" opacity="0.69"/><circle cx="351.9" cy="254.4" r="2.5" fill="#ffffff" opacity="0.69"/><circle cx="383.0" cy="233.0" r="1.8" fill="#ffe082" opacity="0.87"/><circle cx="253.9" cy="202.6" r="0.9" fill="#f48fb1" opacity="0.43"/><circle cx="126.1" cy="250.0" r="2.4" fill="#ffffff" opacity="0.68"/><circle cx="125.4" cy="182.3" r="1.6" fill="#f48fb1" opacity="0.50"/><circle cx="311.1" cy="144.2" r="2.0" fill="#f48fb1" opacity="0.30"/><circle cx="198.7" cy="217.4" r="2.4" fill="#ffffff" opacity="0.86"/><circle cx="316.4" cy="139.4" r="0.8" fill="#f48fb1" opacity="0.80"/><circle cx="342.1" cy="315.4" r="1.6" fill="#f48fb1" opacity="0.85"/><circle cx="282.7" cy="253.2" r="1.0" fill="#ffe082" opacity="0.68"/><circle cx="352.2" cy="263.3" r="2.4" fill="#f48fb1" opacity="0.68"/><circle cx="314.9" cy="138.4" r="2.0" fill="#ffffff" opacity="0.54"/><circle cx="205.7" cy="385.6" r="1.1" fill="#ffffff" opacity="0.79"/><circle cx="226.0" cy="246.0" r="0.8" fill="#ffffff" opacity="0.32"/><circle cx="160.7" cy="281.8" r="0.4" fill="#f48fb1" opacity="0.61"/><circle cx="316.8" cy="203.2" r="2.4" fill="#f48fb1" opacity="0.51"/><circle cx="318.4" cy="152.4" r="0.9" fill="#ffe082" opacity="0.61"/><circle cx="188.6" cy="329.7" r="2.5" fill="#ffffff" opacity="0.86"/><circle cx="215.0" cy="215.2" r="0.8" fill="#ffffff" opacity="0.41"/><circle cx="364.8" cy="225.7" r="1.7" fill="#f48fb1" opacity="0.88"/><circle cx="182.4" cy="171.9" r="1.1" fill="#f48fb1" opacity="0.84"/><circle cx="191.3" cy="264.9" r="2.4" fill="#f48fb1" opacity="0.81"/><circle cx="161.8" cy="346.6" r="2.6" fill="#f48fb1" opacity="0.71"/><circle cx="253.8" cy="252.6" r="1.6" fill="#f48fb1" opacity="0.47"/><circle cx="259.7" cy="258.6" r="1.2" fill="#f48fb1" opacity="0.46"/><circle cx="252.8" cy="398.0" r="1.0" fill="#ffe082" opacity="0.75"/><circle cx="278.1" cy="135.9" r="0.4" fill="#f48fb1" opacity="0.34"/><circle cx="183.7" cy="177.1" r="0.4" fill="#f48fb1" opacity="0.32"/><circle cx="220.6" cy="244.0" r="1.5" fill="#ffffff" opacity="0.38"/><circle cx="331.9" cy="253.0" r="0.6" fill="#ffffff" opacity="0.67"/><circle cx="375.6" cy="251.1" r="1.4" fill="#f48fb1" opacity="0.57"/><circle cx="240.3" cy="306.6" r="1.6" fill="#ffffff" opacity="0.65"/><circle cx="355.9" cy="208.2" r="1.6" fill="#ffe082" opacity="0.70"/><circle cx="357.0" cy="249.4" r="1.7" fill="#f48fb1" opacity="0.56"/><circle cx="202.2" cy="113.3" r="1.2" fill="#ffe082" opacity="0.64"/><circle cx="384.5" cy="247.5" r="1.4" fill="#ffffff" opacity="0.49"/><circle cx="151.6" cy="262.0" r="2.5" fill="#ffffff" opacity="0.60"/><circle cx="384.7" cy="271.2" r="0.8" fill="#f48fb1" opacity="0.51"/><circle cx="364.0" cy="158.9" r="1.9" fill="#ffe082" opacity="0.67"/><circle cx="161.6" cy="292.2" r="1.9" fill="#ffffff" opacity="0.39"/><circle cx="189.6" cy="129.4" r="1.4" fill="#f48fb1" opacity="0.40"/><circle cx="349.4" cy="256.4" r="2.0" fill="#ffffff" opacity="0.51"/><circle cx="337.2" cy="221.6" r="0.6" fill="#f48fb1" opacity="0.48"/><circle cx="271.3" cy="257.3" r="0.6" fill="#ffffff" opacity="0.78"/><circle cx="298.1" cy="107.6" r="0.6" fill="#ffffff" opacity="0.41"/><circle cx="264.9" cy="365.1" r="2.2" fill="#f48fb1" opacity="0.63"/><circle cx="154.2" cy="339.3" r="1.8" fill="#ffffff" opacity="0.35"/><circle cx="353.3" cy="139.6" r="2.1" fill="#f48fb1" opacity="0.80"/><circle cx="186.8" cy="386.5" r="2.0" fill="#ffffff" opacity="0.81"/><circle cx="391.8" cy="246.8" r="1.2" fill="#f48fb1" opacity="0.44"/><circle cx="349.2" cy="302.1" r="1.8" fill="#ffffff" opacity="0.58"/><circle cx="168.4" cy="340.1" r="0.6" fill="#ffffff" opacity="0.38"/><circle cx="264.7" cy="142.2" r="0.5" fill="#ffe082" opacity="0.43"/><circle cx="159.0" cy="279.0" r="0.7" fill="#f48fb1" opacity="0.50"/><circle cx="290.6" cy="227.0" r="1.9" fill="#ffe082" opacity="0.60"/><circle cx="116.0" cy="249.6" r="1.6" fill="#ffe082" opacity="0.82"/><circle cx="190.0" cy="366.6" r="1.1" fill="#f48fb1" opacity="0.46"/><circle cx="271.8" cy="378.3" r="2.1" fill="#f48fb1" opacity="0.50"/><circle cx="324.2" cy="288.7" r="0.8" fill="#f48fb1" opacity="0.64"/><circle cx="154.7" cy="174.0" r="0.7" fill="#f48fb1" opacity="0.44"/><circle cx="403.4" cy="243.1" r="1.1" fill="#f48fb1" opacity="0.33"/><circle cx="198.7" cy="394.6" r="1.9" fill="#ffffff" opacity="0.35"/><circle cx="280.2" cy="405.1" r="1.7" fill="#f48fb1" opacity="0.56"/><circle cx="336.6" cy="362.1" r="2.1" fill="#ffffff" opacity="0.52"/><circle cx="324.2" cy="266.5" r="0.9" fill="#ffe082" opacity="0.79"/><circle cx="293.1" cy="388.8" r="1.2" fill="#f48fb1" opacity="0.50"/><circle cx="403.7" cy="279.4" r="1.9" fill="#f48fb1" opacity="0.41"/><circle cx="274.8" cy="222.0" r="2.2" fill="#f48fb1" opacity="0.70"/><circle cx="391.8" cy="318.8" r="1.1" fill="#ffffff" opacity="0.50"/><circle cx="255.9" cy="215.8" r="2.2" fill="#f48fb1" opacity="0.35"/><circle cx="352.1" cy="316.1" r="1.3" fill="#f48fb1" opacity="0.70"/><circle cx="240.8" cy="175.1" r="1.8" fill="#f48fb1" opacity="0.38"/><circle cx="312.5" cy="327.5" r="1.9" fill="#ffffff" opacity="0.53"/><circle cx="342.7" cy="259.2" r="1.0" fill="#ffffff" opacity="0.56"/><circle cx="213.9" cy="295.7" r="2.3" fill="#ffffff" opacity="0.74"/><circle cx="325.0" cy="343.2" r="2.5" fill="#f48fb1" opacity="0.68"/><circle cx="364.4" cy="176.3" r="2.4" fill="#ffffff" opacity="0.62"/><circle cx="251.3" cy="403.1" r="1.4" fill="#ffffff" opacity="0.49"/><circle cx="350.7" cy="175.5" r="1.7" fill="#ffffff" opacity="0.45"/><circle cx="131.5" cy="299.7" r="1.2" fill="#ffffff" opacity="0.54"/><circle cx="375.1" cy="230.2" r="2.3" fill="#f48fb1" opacity="0.80"/><circle cx="277.4" cy="398.3" r="1.8" fill="#f48fb1" opacity="0.90"/><circle cx="397.7" cy="248.0" r="2.3" fill="#f48fb1" opacity="0.49"/><circle cx="197.0" cy="196.6" r="1.9" fill="#ffe082" opacity="0.48"/><circle cx="214.8" cy="324.1" r="0.5" fill="#f48fb1" opacity="0.42"/><circle cx="289.0" cy="172.6" r="0.8" fill="#f48fb1" opacity="0.78"/><circle cx="366.9" cy="273.1" r="0.7" fill="#f48fb1" opacity="0.37"/><circle cx="317.0" cy="117.7" r="1.2" fill="#ffffff" opacity="0.59"/><circle cx="116.2" cy="240.6" r="1.2" fill="#f48fb1" opacity="0.52"/><circle cx="342.7" cy="303.3" r="0.5" fill="#f48fb1" opacity="0.89"/><circle cx="268.8" cy="106.0" r="1.8" fill="#f48fb1" opacity="0.78"/><circle cx="119.6" cy="189.2" r="2.1" fill="#f48fb1" opacity="0.60"/><circle cx="135.3" cy="346.1" r="1.1" fill="#ffffff" opacity="0.56"/><circle cx="280.6" cy="359.3" r="0.7" fill="#ffffff" opacity="0.83"/><circle cx="219.8" cy="188.1" r="1.7" fill="#f48fb1" opacity="0.42"/><circle cx="241.7" cy="316.9" r="0.9" fill="#f48fb1" opacity="0.47"/><circle cx="284.5" cy="383.0" r="1.5" fill="#ffe082" opacity="0.30"/><circle cx="226.8" cy="354.3" r="1.8" fill="#f48fb1" opacity="0.57"/><circle cx="277.0" cy="143.9" r="1.3" fill="#f48fb1" opacity="0.56"/><circle cx="362.9" cy="242.8" r="1.2" fill="#f48fb1" opacity="0.68"/><circle cx="203.2" cy="263.9" r="0.8" fill="#f48fb1" opacity="0.77"/><circle cx="224.9" cy="365.6" r="0.4" fill="#ffffff" opacity="0.57"/><circle cx="368.1" cy="362.2" r="1.8" fill="#f48fb1" opacity="0.38"/><circle cx="213.8" cy="331.3" r="0.5" fill="#ffffff" opacity="0.48"/><circle cx="366.6" cy="180.9" r="2.2" fill="#f48fb1" opacity="0.87"/><circle cx="313.9" cy="239.4" r="0.8" fill="#f48fb1" opacity="0.70"/><circle cx="290.9" cy="149.2" r="2.3" fill="#ffffff" opacity="0.32"/><circle cx="261.2" cy="367.2" r="2.1" fill="#f48fb1" opacity="0.65"/><circle cx="325.7" cy="145.7" r="1.4" fill="#ffffff" opacity="0.80"/><circle cx="235.7" cy="212.0" r="0.7" fill="#f48fb1" opacity="0.52"/><circle cx="309.6" cy="259.1" r="2.3" fill="#f48fb1" opacity="0.45"/><circle cx="270.8" cy="102.1" r="2.3" fill="#f48fb1" opacity="0.80"/><circle cx="334.5" cy="279.8" r="0.4" fill="#ffffff" opacity="0.52"/><circle cx="277.7" cy="202.9" r="1.0" fill="#f48fb1" opacity="0.56"/><circle cx="155.4" cy="153.6" r="1.0" fill="#f48fb1" opacity="0.36"/><circle cx="277.5" cy="227.5" r="0.7" fill="#ffffff" opacity="0.87"/><circle cx="256.3" cy="301.9" r="0.6" fill="#ffffff" opacity="0.72"/><circle cx="309.3" cy="183.4" r="2.0" fill="#f48fb1" opacity="0.43"/><circle cx="285.0" cy="248.2" r="2.3" fill="#f48fb1" opacity="0.81"/><circle cx="153.2" cy="191.9" r="0.5" fill="#ffffff" opacity="0.57"/><circle cx="375.3" cy="284.3" r="2.0" fill="#ffffff" opacity="0.50"/><circle cx="224.3" cy="266.1" r="1.2" fill="#f48fb1" opacity="0.40"/><circle cx="388.1" cy="180.5" r="2.4" fill="#f48fb1" opacity="0.57"/><circle cx="279.9" cy="127.9" r="2.2" fill="#f48fb1" opacity="0.82"/><circle cx="234.9" cy="203.4" r="2.3" fill="#f48fb1" opacity="0.45"/><circle cx="323.4" cy="245.5" r="1.4" fill="#ffffff" opacity="0.38"/><circle cx="381.4" cy="294.4" r="1.1" fill="#ffffff" opacity="0.57"/><circle cx="191.1" cy="293.6" r="2.1" fill="#f48fb1" opacity="0.86"/><circle cx="282.0" cy="242.9" r="2.2" fill="#f48fb1" opacity="0.62"/><circle cx="234.7" cy="151.9" r="1.3" fill="#ffffff" opacity="0.46"/><circle cx="229.0" cy="380.7" r="1.9" fill="#f48fb1" opacity="0.71"/><circle cx="181.6" cy="252.1" r="0.6" fill="#f48fb1" opacity="0.35"/><circle cx="261.8" cy="366.7" r="2.4" fill="#ffe082" opacity="0.49"/><circle cx="387.6" cy="227.3" r="2.0" fill="#f48fb1" opacity="0.38"/><circle cx="318.8" cy="375.2" r="1.5" fill="#f48fb1" opacity="0.79"/><circle cx="220.2" cy="146.6" r="2.5" fill="#f48fb1" opacity="0.71"/><circle cx="378.4" cy="255.2" r="0.5" fill="#ffe082" opacity="0.49"/><circle cx="268.1" cy="383.8" r="2.0" fill="#f48fb1" opacity="0.54"/><circle cx="326.6" cy="209.7" r="0.8" fill="#f48fb1" opacity="0.53"/><circle cx="353.4" cy="279.5" r="1.5" fill="#ffffff" opacity="0.88"/><circle cx="192.2" cy="209.3" r="1.8" fill="#f48fb1" opacity="0.59"/><circle cx="223.1" cy="402.0" r="1.0" fill="#ffffff" opacity="0.39"/><circle cx="282.1" cy="206.1" r="1.3" fill="#f48fb1" opacity="0.82"/><circle cx="169.2" cy="357.1" r="0.7" fill="#ffffff" opacity="0.67"/><circle cx="178.7" cy="295.1" r="1.8" fill="#ffffff" opacity="0.46"/><circle cx="182.9" cy="277.5" r="0.5" fill="#f48fb1" opacity="0.72"/><circle cx="364.2" cy="202.3" r="1.7" fill="#f48fb1" opacity="0.46"/><circle cx="250.6" cy="140.5" r="2.1" fill="#f48fb1" opacity="0.53"/><circle cx="195.0" cy="113.8" r="2.2" fill="#f48fb1" opacity="0.90"/><circle cx="168.2" cy="378.2" r="2.5" fill="#f48fb1" opacity="0.70"/><circle cx="173.6" cy="365.4" r="1.9" fill="#f48fb1" opacity="0.75"/><circle cx="410.2" cy="268.3" r="0.9" fill="#ffe082" opacity="0.62"/><circle cx="327.6" cy="387.6" r="2.6" fill="#ffffff" opacity="0.32"/><circle cx="215.1" cy="284.9" r="1.0" fill="#ffe082" opacity="0.89"/><circle cx="154.6" cy="179.9" r="2.4" fill="#f48fb1" opacity="0.78"/><circle cx="239.5" cy="260.4" r="1.6" fill="#ffffff" opacity="0.68"/><circle cx="372.2" cy="190.4" r="0.6" fill="#f48fb1" opacity="0.73"/><circle cx="217.3" cy="313.0" r="1.6" fill="#f48fb1" opacity="0.57"/><circle cx="222.0" cy="262.4" r="1.8" fill="#f48fb1" opacity="0.31"/><circle cx="328.7" cy="359.2" r="2.1" fill="#f48fb1" opacity="0.39"/><circle cx="257.8" cy="213.7" r="2.4" fill="#ffffff" opacity="0.87"/><circle cx="141.0" cy="330.4" r="1.3" fill="#f48fb1" opacity="0.63"/><circle cx="187.3" cy="158.4" r="1.0" fill="#ffe082" opacity="0.61"/><circle cx="366.5" cy="185.0" r="0.4" fill="#f48fb1" opacity="0.63"/><circle cx="153.4" cy="285.1" r="1.1" fill="#ffffff" opacity="0.69"/><circle cx="115.1" cy="281.9" r="1.5" fill="#ffffff" opacity="0.49"/><circle cx="340.7" cy="174.4" r="0.4" fill="#f48fb1" opacity="0.75"/><circle cx="333.7" cy="355.8" r="0.8" fill="#f48fb1" opacity="0.58"/><circle cx="159.5" cy="264.1" r="1.4" fill="#f48fb1" opacity="0.58"/><circle cx="352.9" cy="361.4" r="1.8" fill="#ffe082" opacity="0.70"/><circle cx="250.7" cy="390.5" r="1.1" fill="#f48fb1" opacity="0.85"/><circle cx="294.0" cy="341.7" r="2.0" fill="#ffe082" opacity="0.83"/><circle cx="308.8" cy="326.4" r="2.6" fill="#f48fb1" opacity="0.65"/><circle cx="208.3" cy="195.2" r="1.4" fill="#f48fb1" opacity="0.89"/><circle cx="224.6" cy="325.5" r="1.7" fill="#ffffff" opacity="0.47"/><circle cx="301.8" cy="389.6" r="1.5" fill="#ffe082" opacity="0.59"/><circle cx="285.3" cy="129.4" r="0.9" fill="#ffffff" opacity="0.48"/><circle cx="277.5" cy="288.3" r="1.3" fill="#f48fb1" opacity="0.65"/><circle cx="183.8" cy="313.6" r="2.5" fill="#f48fb1" opacity="0.54"/><circle cx="395.7" cy="289.5" r="0.9" fill="#f48fb1" opacity="0.72"/><circle cx="343.1" cy="204.6" r="0.8" fill="#f48fb1" opacity="0.66"/><circle cx="158.6" cy="262.3" r="2.3" fill="#f48fb1" opacity="0.87"/><circle cx="176.2" cy="175.7" r="2.3" fill="#ffffff" opacity="0.81"/><circle cx="128.8" cy="269.4" r="0.9" fill="#f48fb1" opacity="0.86"/><circle cx="294.5" cy="203.0" r="1.3" fill="#f48fb1" opacity="0.73"/><circle cx="290.3" cy="241.7" r="2.2" fill="#f48fb1" opacity="0.38"/><circle cx="394.9" cy="208.8" r="2.4" fill="#f48fb1" opacity="0.44"/><circle cx="364.9" cy="180.2" r="2.2" fill="#ffffff" opacity="0.75"/><circle cx="363.2" cy="339.9" r="2.3" fill="#ffffff" opacity="0.73"/><circle cx="151.2" cy="237.8" r="1.3" fill="#f48fb1" opacity="0.61"/><circle cx="164.5" cy="139.7" r="0.8" fill="#ffffff" opacity="0.66"/><circle cx="238.2" cy="227.1" r="2.3" fill="#ffffff" opacity="0.36"/><circle cx="326.4" cy="119.8" r="1.4" fill="#f48fb1" opacity="0.34"/><circle cx="230.7" cy="184.9" r="2.6" fill="#f48fb1" opacity="0.52"/><circle cx="127.8" cy="189.6" r="1.0" fill="#ffffff" opacity="0.30"/><circle cx="289.7" cy="373.1" r="2.3" fill="#f48fb1" opacity="0.65"/><circle cx="123.0" cy="310.6" r="1.3" fill="#f48fb1" opacity="0.67"/><circle cx="175.2" cy="143.9" r="1.8" fill="#f48fb1" opacity="0.50"/><circle cx="322.8" cy="145.2" r="0.5" fill="#f48fb1" opacity="0.86"/><circle cx="371.9" cy="168.3" r="2.5" fill="#ffffff" opacity="0.67"/><circle cx="350.7" cy="319.7" r="0.7" fill="#ffffff" opacity="0.46"/><circle cx="270.5" cy="331.6" r="1.6" fill="#f48fb1" opacity="0.86"/><circle cx="218.9" cy="147.1" r="0.5" fill="#ffffff" opacity="0.81"/><circle cx="177.6" cy="204.4" r="2.0" fill="#f48fb1" opacity="0.66"/><circle cx="351.1" cy="250.4" r="0.7" fill="#f48fb1" opacity="0.30"/><circle cx="216.4" cy="353.4" r="2.5" fill="#f48fb1" opacity="0.81"/><circle cx="289.0" cy="268.6" r="2.0" fill="#f48fb1" opacity="0.45"/><circle cx="125.0" cy="213.5" r="2.2" fill="#ffffff" opacity="0.70"/><circle cx="132.7" cy="292.3" r="1.4" fill="#f48fb1" opacity="0.31"/><circle cx="259.5" cy="393.8" r="0.4" fill="#ffffff" opacity="0.30"/><circle cx="255.1" cy="263.1" r="2.1" fill="#ffffff" opacity="0.57"/><circle cx="258.0" cy="221.5" r="1.4" fill="#ffe082" opacity="0.75"/><circle cx="346.6" cy="172.8" r="1.9" fill="#f48fb1" opacity="0.84"/><circle cx="205.5" cy="315.5" r="1.4" fill="#f48fb1" opacity="0.46"/><circle cx="387.8" cy="282.0" r="1.8" fill="#ffffff" opacity="0.75"/><circle cx="207.0" cy="171.4" r="2.5" fill="#f48fb1" opacity="0.80"/><circle cx="299.3" cy="356.0" r="1.6" fill="#ffffff" opacity="0.47"/><circle cx="264.7" cy="288.3" r="0.7" fill="#f48fb1" opacity="0.66"/><circle cx="387.6" cy="273.6" r="1.9" fill="#f48fb1" opacity="0.90"/><circle cx="221.8" cy="226.7" r="2.5" fill="#f48fb1" opacity="0.37"/><circle cx="165.5" cy="171.1" r="1.5" fill="#f48fb1" opacity="0.62"/></g>

  <!-- ── WARM DISC beneath cross ── -->
  <circle cx="256" cy="256" r="75" fill="#ffffff" opacity="0.55" filter="url(#glow5)"/>
  <circle cx="256" cy="256" r="50" fill="#ffffff" opacity="0.40"/>

  <!-- ── CROSS SHADOW ── -->
  <rect x="233" y="84" width="52" height="356" rx="10" fill="#ad1457" opacity="0.20"/>
  <rect x="81"   y="236" width="356" height="52" rx="10" fill="#ad1457" opacity="0.20"/>

  <!-- ── CROSS MAIN ARMS ── -->
  <rect x="230" y="78" width="52" height="356" rx="10" fill="url(#crossG)" filter="url(#shadow)"/>
  <rect x="78"   y="230" width="356" height="52" rx="10" fill="url(#crossG)"/>

  <!-- ── CROSS HIGHLIGHT (3-D shine stripe) ── -->
  <rect x="238" y="84" width="19.76" height="344" rx="6" fill="url(#crossHL)" opacity="0.45"/>
  <rect x="86"   y="236" width="340" height="19.76" rx="4" fill="url(#crossHL)" opacity="0.35"/>

  <!-- ── CROSS TIP ORNAMENTS ── -->
  <ellipse cx="256"    cy="78"  rx="17" ry="11" fill="#f8bbd0" opacity="0.90"/>
  <ellipse cx="256"    cy="434"  rx="17" ry="11" fill="#f8bbd0" opacity="0.90"/>
  <ellipse cx="78" cy="256"     rx="11" ry="17" fill="#f8bbd0" opacity="0.90"/>
  <ellipse cx="434" cy="256"     rx="11" ry="17" fill="#f8bbd0" opacity="0.90"/>

  <!-- ── CENTRE JEWEL ── -->
  <circle cx="256" cy="256" r="30" fill="#ffffff" opacity="0.38" filter="url(#glow5)"/>
  <circle cx="256" cy="256" r="20" fill="#ffffff" opacity="0.65"/>
  <circle cx="256" cy="256" r="12" fill="#ffffff" opacity="0.90"/>
  <circle cx="251" cy="251" r="5" fill="#ffffff" opacity="1.0"/>

  <!-- ── SPARKLE STARS at tips ── -->
  
    <circle cx="256" cy="78" r="7" fill="#ffffff" opacity="0.85" filter="url(#glow3)"/>
    <circle cx="256" cy="78" r="3.5" fill="#ffffff" opacity="1.0"/>
    <circle cx="256" cy="434" r="7" fill="#ffffff" opacity="0.85" filter="url(#glow3)"/>
    <circle cx="256" cy="434" r="3.5" fill="#ffffff" opacity="1.0"/>
    <circle cx="78" cy="256" r="7" fill="#ffffff" opacity="0.85" filter="url(#glow3)"/>
    <circle cx="78" cy="256" r="3.5" fill="#ffffff" opacity="1.0"/>
    <circle cx="434" cy="256" r="7" fill="#ffffff" opacity="0.85" filter="url(#glow3)"/>
    <circle cx="434" cy="256" r="3.5" fill="#ffffff" opacity="1.0"/>

  <!-- Cross intersection glow star (4-point) -->
  <path d="M256,234 L261,251 L278,256 L261,261 L256,278 L251,261 L234,256 L251,251 Z"
    fill="#ffffff" opacity="0.70" filter="url(#glow3)"/>

</g>
</svg>